<?xml version="1.0" encoding="utf-8"?>
<!-- Generator: Adobe Illustrator 23.0.6, SVG Export Plug-In . SVG Version: 6.00 Build 0)  -->
<svg version="1.1" id="Layer_1" xmlns="http://www.w3.org/2000/svg" xmlns:xlink="http://www.w3.org/1999/xlink" x="0px" y="0px"
	 viewBox="0 0 500 500" style="enable-background:new 0 0 500 500;" xml:space="preserve">
<style type="text/css">
	.st0{clip-path:url(#SVGID_2_);}
	.st1{fill:#FFFFFF;}
</style>
<g>
	<g>
		<defs>
			<circle id="SVGID_1_" cx="250" cy="250" r="250"/>
		</defs>
		<clipPath id="SVGID_2_">
			<use xlink:href="#SVGID_1_"  style="overflow:visible;"/>
		</clipPath>
		<g class="st0">
		</g>
	</g>
</g>
<g>
	<g>
		<path class="st1" d="M147,362.9l29.7-35c20.6,19.6,48.2,32.8,75,32.8c32.4,0,50.2-14.7,50.2-37.1c0-23.7-18.6-31.2-44.7-42.3
			l-39.3-17.1c-28.3-11.8-58.2-34.2-58.2-76.3c0-45.8,40.5-81.1,96.6-81.1c33.6,0,66.2,13.9,88.7,36.7l-26.2,32.4
			c-18.3-15.6-37.8-24.7-62.5-24.7c-27.3,0-45.1,12.8-45.1,33.8c0,22.6,21.9,31,45.8,40.7l38.8,16.3c34.2,14.3,58.2,35.9,58.2,77.6
			c0,46.6-38.7,85.5-103.3,85.5C211.8,405.1,174.3,389.8,147,362.9z"/>
	</g>
</g>
</svg>
